<svg xmlns="http://www.w3.org/2000/svg" viewBox="0 0 64 64" fill="none">
  <rect width="64" height="64" rx="18" fill="#071433" />
  <rect x="6" y="6" width="52" height="52" rx="14" fill="url(#panel)" />
  <path d="M14 46V18h6.8l12.8 16.7V18H40v28h-6.4L20.4 29.1V46H14Z" fill="#F8FAFF" />
  <path
    d="M45.25 21.5C45.25 18.46 47.62 16.25 50.78 16.25C53.95 16.25 56.31 18.46 56.31 21.5C56.31 23.07 55.66 24.36 54.48 25.33C56.08 26.32 57 27.93 57 29.92C57 33.36 54.32 35.88 50.78 35.88C47.25 35.88 44.56 33.36 44.56 29.92C44.56 27.93 45.48 26.32 47.08 25.33C45.9 24.36 45.25 23.07 45.25 21.5ZM48.81 29.61C48.81 30.93 49.59 31.85 50.78 31.85C51.97 31.85 52.75 30.93 52.75 29.61C52.75 28.29 51.97 27.37 50.78 27.37C49.59 27.37 48.81 28.29 48.81 29.61ZM48.98 21.86C48.98 22.99 49.67 23.83 50.78 23.83C51.9 23.83 52.59 22.99 52.59 21.86C52.59 20.73 51.9 19.88 50.78 19.88C49.67 19.88 48.98 20.73 48.98 21.86Z"
    fill="#58A6FF"
  />
  <path d="M43 38.75L52.67 38.75V42.06L47.27 42.06L52.84 48H48.22L43 42.24V38.75Z" fill="#58A6FF" />
  <defs>
    <linearGradient id="panel" x1="10" y1="10" x2="54" y2="54" gradientUnits="userSpaceOnUse">
      <stop stop-color="#0B1D4A" />
      <stop offset="1" stop-color="#12307A" />
    </linearGradient>
  </defs>
</svg>
